<svg xmlns="http://www.w3.org/2000/svg" xmlns:xlink="http://www.w3.org/1999/xlink" version="1.1" x="0px" y="0px" viewBox="0 0 100 125" style="enable-background:new 0 0 100 100;" xml:space="preserve"><g><rect x="36.5" y="60.5" width="27.1" height="2"/><rect x="25" y="45.5" width="8.1" height="2"/><rect x="39" y="45.5" width="8.1" height="2"/><rect x="53" y="45.5" width="8.1" height="2"/><rect x="67" y="45.5" width="8.1" height="2"/><rect x="25" y="52.5" width="8.1" height="2"/><rect x="39" y="52.5" width="8.1" height="2"/><rect x="53" y="52.5" width="8.1" height="2"/><rect x="67" y="52.5" width="8.1" height="2"/><rect x="25" y="38.5" width="8.1" height="2"/><rect x="39" y="38.5" width="8.1" height="2"/><rect x="53" y="38.5" width="8.1" height="2"/><rect x="67" y="38.5" width="8.1" height="2"/><path d="M81,32H19c-0.6,0-1,0.4-1,1v34c0,0.6,0.4,1,1,1h62c0.6,0,1-0.4,1-1V33C82,32.4,81.6,32,81,32z M80,66H20V34h60V66z"/></g><text x="0" y="115" fill="#000000" font-size="5px" font-weight="bold" font-family="'Helvetica Neue', Helvetica, Arial-Unicode, Arial, Sans-serif">Created by Agrahara</text><text x="0" y="120" fill="#000000" font-size="5px" font-weight="bold" font-family="'Helvetica Neue', Helvetica, Arial-Unicode, Arial, Sans-serif">from the Noun Project</text></svg>